<svg width="20" height="20" viewBox="0 0 20 20" fill="none" xmlns="http://www.w3.org/2000/svg">
<path d="M9.89837 17.4098C6.79764 17.9338 4.77295 16.0268 4.14819 15.0078L4.73049 13.1699L5.40377 11.9871L5.89508 9.69433L7.31443 7.89286L8.77017 7.82007L11.9364 7.89286L14.9571 12.0963L15.9761 14.6075C14.2001 17.417 11.1843 17.6463 9.89837 17.4098Z" fill="url(#paint0_linear_2_6396)"/>
<path fill-rule="evenodd" clip-rule="evenodd" d="M10.7736 12.7745C10.6872 12.8318 10.5875 12.8657 10.4841 12.8729C10.3807 12.8802 10.2771 12.8605 10.1836 12.8159C10.0585 12.7423 9.95815 12.633 9.89545 12.5021C9.83276 12.3712 9.81053 12.2245 9.83161 12.0809C9.778 11.3688 9.47569 10.6982 8.97758 10.1865C8.8136 10.91 8.52269 11.5987 8.11837 12.2207L7.637 12.9557C7.1774 13.657 6.96099 14.4899 7.02106 15.3263C7.06647 15.8888 7.32148 16.4138 7.73559 16.7972C8.1497 17.1806 8.69271 17.3946 9.25708 17.3966H10.5614C11.2098 17.3966 11.8318 17.1394 12.2908 16.6814C12.7497 16.2234 13.0083 15.602 13.0097 14.9536C13.0087 13.7121 12.579 12.509 11.7933 11.5478C11.5718 12.0422 11.2192 12.4664 10.7736 12.7745Z" fill="url(#paint1_linear_2_6396)"/>
<path fill-rule="evenodd" clip-rule="evenodd" d="M13.061 3.42075L12.7918 3.18265C12.7918 3.18265 12.7918 3.28617 12.7918 3.45698C12.7283 4.11201 12.5215 4.74507 12.1861 5.31127C11.8507 5.87748 11.3948 6.36298 10.8508 6.73336C10.8508 6.73336 10.8508 6.55221 10.8146 6.26753C10.7243 5.13961 10.3543 4.05199 9.73794 3.10306C9.12159 2.15413 8.27838 1.37384 7.28461 0.832764C7.28461 0.832764 7.24837 1.428 7.20697 2.075C7.14588 3.10812 6.81578 4.10733 6.24941 4.97354L4.73286 7.27684C3.7012 8.8527 3.21733 10.7245 3.35605 12.6029C3.42508 13.521 3.73774 14.4041 4.26181 15.1611C4.78587 15.918 5.50237 16.5215 6.3374 16.9093C6.04649 16.458 5.86892 15.943 5.81981 15.4083C5.74353 14.3128 6.02705 13.2223 6.62726 12.3027L7.10862 11.5729C7.61017 10.8313 7.90823 9.97101 7.97301 9.07808C7.98049 8.97894 8.01226 8.88317 8.06552 8.79921C8.11878 8.71526 8.19189 8.64572 8.27839 8.59671C8.36544 8.54821 8.46343 8.52276 8.56307 8.52276C8.66271 8.52276 8.7607 8.54821 8.84775 8.59671C9.77013 9.09913 10.4716 9.92797 10.8146 10.9207C10.8681 10.7759 10.9012 10.6243 10.913 10.4704C10.9045 10.3366 10.9371 10.2034 11.0065 10.0887C11.0759 9.97398 11.1787 9.88322 11.3012 9.82859C11.4342 9.78585 11.5773 9.78529 11.7107 9.82698C11.8441 9.86868 11.9614 9.95059 12.0465 10.0615C12.7243 10.6826 13.2647 11.4386 13.6328 12.281C14.001 13.1234 14.1888 14.0335 14.1842 14.9528C14.1848 15.5772 14.0225 16.1909 13.7132 16.7333C14.6331 16.2531 15.4044 15.5306 15.9435 14.6439C16.4826 13.7572 16.7692 12.74 16.7721 11.7023C16.7704 10.1386 16.439 8.59281 15.7996 7.16583C15.1601 5.73885 14.2269 4.46273 13.061 3.42075Z" fill="#FF7A1A"/>
<defs>
<linearGradient id="paint0_linear_2_6396" x1="10.0621" y1="7.82007" x2="10.0621" y2="17.4992" gradientUnits="userSpaceOnUse">
<stop stop-color="#FFC888"/>
<stop offset="1" stop-color="#FFEBCD"/>
</linearGradient>
<linearGradient id="paint1_linear_2_6396" x1="10.0104" y1="10.1865" x2="10.0104" y2="17.3966" gradientUnits="userSpaceOnUse">
<stop stop-color="#FFBD8D"/>
<stop offset="1" stop-color="#FF6B00"/>
</linearGradient>
</defs>
</svg>
